<svg width="30" height="29" viewBox="0 0 30 29" fill="none" xmlns="http://www.w3.org/2000/svg">
<path d="M15 0C6.71563 0 0 6.49177 0 14.5C0 22.5082 6.71563 29 15 29C23.2844 29 30 22.5082 30 14.5C30 6.49177 23.2844 0 15 0ZM19.6312 20.2955C19.4 20.2955 19.2406 20.2109 19.0703 20.1112C17.4875 19.1853 15.5266 18.699 13.4016 18.699C12.3172 18.699 11.1469 18.8228 9.92344 19.0645L9.775 19.1007C9.61875 19.137 9.46094 19.1762 9.33906 19.1762C9.22368 19.1779 9.10913 19.1572 9.00214 19.1154C8.89515 19.0736 8.79789 19.0115 8.71608 18.9328C8.63426 18.8542 8.56954 18.7605 8.52573 18.6573C8.48191 18.5541 8.45988 18.4435 8.46094 18.3319C8.46094 17.8516 8.74219 17.5118 9.20937 17.4257C10.5857 17.1137 11.9942 16.9536 13.4078 16.9484C15.8766 16.9484 18.0859 17.4997 19.9719 18.5947C20.2969 18.7775 20.5 18.9874 20.5 19.4542C20.5 19.677 20.4085 19.8908 20.2456 20.0485C20.0828 20.2063 19.8618 20.2951 19.6312 20.2955ZM20.8469 16.9982C20.5703 16.9982 20.3906 16.897 20.2297 16.8064C17.3781 15.1691 13.125 14.6269 9.62812 15.5271C9.57489 15.5423 9.52176 15.5579 9.46875 15.5739C9.3375 15.6147 9.2125 15.654 9.04062 15.654C8.76325 15.6528 8.4977 15.5452 8.3023 15.3549C8.10689 15.1646 7.99761 14.9071 7.99844 14.639C7.99844 14.0997 8.28906 13.7221 8.81719 13.5786C10.259 13.1747 11.7536 12.9748 13.2547 12.9851C16.2016 12.9851 19.0578 13.6995 21.2953 14.9939C21.7031 15.2174 21.8875 15.5271 21.8875 15.9878C21.8875 16.5466 21.4203 16.9982 20.8469 16.9982ZM22.2266 13.2403C21.9933 13.241 21.7649 13.1765 21.5687 13.0545C19.6328 11.9308 16.6141 11.2632 13.4844 11.2632C11.8547 11.2632 10.375 11.4369 9.08281 11.7737C9.03918 11.7844 8.99592 11.7965 8.95312 11.8099C8.7958 11.8616 8.63163 11.8911 8.46562 11.8976C8.30359 11.8982 8.14306 11.8676 7.99341 11.8075C7.84377 11.7474 7.70801 11.6591 7.5941 11.5477C7.48018 11.4363 7.39038 11.3041 7.32996 11.1588C7.26953 11.0134 7.23969 10.8579 7.24219 10.7013C7.24219 10.1183 7.58125 9.67271 8.14687 9.51109C9.70625 9.06552 11.5031 8.84198 13.4828 8.84198C17.0469 8.84198 20.4406 9.60625 22.7906 10.943C23.2344 11.1846 23.4516 11.5532 23.4516 12.0637C23.4526 12.2191 23.4216 12.3732 23.3603 12.5169C23.299 12.6606 23.2087 12.7911 23.0946 12.9006C22.9806 13.0102 22.845 13.0967 22.696 13.155C22.5469 13.2133 22.3873 13.2423 22.2266 13.2403Z" fill="white"/>
</svg>
